<svg width="24" height="24" viewBox="0 0 24 24" fill="none" xmlns="http://www.w3.org/2000/svg">
<path d="M24 12C24 18.553 18.5648 24 12 24C5.44707 24 0 18.553 0 12C0 5.4353 5.4353 0 11.9883 0C18.553 0 24 5.4353 24 12ZM9.22355 6.02354C8.84708 6.37648 8.83531 6.97649 9.21178 7.32943L14.2 12.0117L9.21178 16.7059C8.84708 17.0471 8.84708 17.6353 9.21178 18.0118C9.5412 18.3177 10.1765 18.2942 10.5177 17.9647L15.5647 13.2118C16.2471 12.5765 16.2588 11.4589 15.5647 10.8118L10.5177 6.07061C10.1412 5.71766 9.57649 5.68237 9.22355 6.02354Z" fill="white"/>
</svg>
