<svg width="327" height="327" viewBox="0 0 327 327" fill="none" xmlns="http://www.w3.org/2000/svg">
<g clip-path="url(#clip0_101_2209899)">
<path d="M162.181 160.79L162.175 160.783L169.484 153.823L162.181 160.79Z" fill="#1D1D1B"/>
<path fill-rule="evenodd" clip-rule="evenodd" d="M148.505 326.016C148.161 325.982 147.831 325.868 147.538 325.684C147.047 325.376 146.119 324.679 145.487 323.778L143.246 323.513C142.421 324.242 141.355 324.703 140.806 324.888C140.463 325.004 140.098 325.035 139.741 324.978L135.835 324.36C135.478 324.303 135.14 324.161 134.85 323.945C134.384 323.599 133.514 322.831 132.954 321.883L130.741 321.443C129.861 322.104 128.762 322.48 128.201 322.622C127.85 322.71 127.483 322.713 127.132 322.628L123.286 321.705C122.934 321.621 122.608 321.453 122.336 321.215C121.9 320.833 121.091 320 120.608 319.01L118.437 318.398C117.508 318.99 116.383 319.278 115.812 319.375C115.456 319.435 115.09 319.409 114.746 319.297L110.984 318.075C110.64 317.963 110.328 317.77 110.076 317.511C109.671 317.097 108.93 316.202 108.526 315.178L106.409 314.397C105.437 314.914 104.293 315.113 103.716 315.165C103.355 315.197 102.993 315.142 102.659 315.004L99.0053 313.491C98.6708 313.353 98.3758 313.135 98.1439 312.857C97.7731 312.412 97.1041 311.463 96.7823 310.41L94.7328 309.465C93.723 309.904 92.5674 310.013 91.9875 310.019C91.6254 310.023 91.2689 309.939 90.9462 309.775L87.4223 307.98C87.1005 307.816 86.8228 307.576 86.6138 307.281C86.2785 306.808 85.6868 305.809 85.4478 304.734L83.4788 303.631C82.4383 303.99 81.2771 304.007 80.6988 303.968C80.3383 303.945 79.9888 303.833 79.6804 303.644L76.3088 301.578C76.0003 301.389 75.7424 301.128 75.557 300.818C75.2596 300.32 74.7484 299.278 74.5946 298.188L72.7186 296.934C71.6529 297.209 70.494 297.136 69.9205 297.051C69.5632 296.999 69.2232 296.861 68.9305 296.648L65.7308 294.324C65.4382 294.111 65.2015 293.831 65.0414 293.506C64.7842 292.987 64.3566 291.908 64.2888 290.809L62.517 289.412C61.4323 289.603 60.2829 289.438 59.7181 289.31C59.3655 289.229 59.0373 289.065 58.7628 288.83L55.7556 286.261C55.4811 286.026 55.2673 285.728 55.1324 285.393C54.917 284.855 54.5747 283.745 54.5936 282.644L52.9362 281.112C51.8397 281.217 50.7068 280.963 50.1538 280.791C49.8083 280.683 49.4944 280.493 49.2388 280.238L46.4422 277.441C46.1858 277.185 45.9965 276.871 45.8884 276.526C45.7157 275.972 45.4617 274.839 45.5666 273.744L44.0346 272.087C42.9341 272.106 41.8242 271.763 41.2862 271.548C40.9509 271.414 40.6527 271.2 40.4176 270.925L37.8491 267.918C37.6148 267.643 37.4499 267.315 37.3694 266.962C37.2401 266.397 37.076 265.247 37.2669 264.164L35.8698 262.392C34.7717 262.325 33.6917 261.896 33.1727 261.639C32.8484 261.479 32.5684 261.242 32.3554 260.95L30.0306 257.75C29.8184 257.457 29.6796 257.118 29.6275 256.76C29.5439 256.187 29.4697 255.028 29.745 253.962L28.4915 252.085C27.4013 251.931 26.3592 251.42 25.8614 251.123C25.5506 250.937 25.2903 250.679 25.101 250.371L23.0349 246.999C22.8464 246.692 22.7352 246.341 22.7107 245.981C22.672 245.402 22.6894 244.242 23.0475 243.2L21.9447 241.231C20.8703 240.992 19.8708 240.4 19.3982 240.065C19.1032 239.856 18.8634 239.579 18.6993 239.257L16.9038 235.733C16.7397 235.41 16.6561 235.053 16.6601 234.691C16.6664 234.112 16.7753 232.956 17.2139 231.946L16.2688 229.897C15.2164 229.575 14.2667 228.907 13.8217 228.535C13.544 228.303 13.3263 228.007 13.1883 227.674L11.6752 224.02C11.5372 223.686 11.4819 223.324 11.5143 222.963C11.5664 222.386 11.7652 221.243 12.2819 220.27L11.5009 218.153C10.4769 217.75 9.58314 217.009 9.16819 216.603C8.90944 216.351 8.71617 216.039 8.60415 215.696L7.3822 211.934C7.27018 211.59 7.24335 211.224 7.3041 210.868C7.40192 210.296 7.68985 209.172 8.28071 208.243L7.66855 206.071C6.67931 205.589 5.84627 204.78 5.46446 204.344C5.22701 204.072 5.05819 203.746 4.97378 203.394L4.0508 199.548C3.96639 199.196 3.96876 198.829 4.05712 198.479C4.19911 197.918 4.57383 196.819 5.23648 195.939L4.79629 193.726C3.84728 193.166 3.0805 192.295 2.73418 191.83C2.51803 191.54 2.37604 191.202 2.31924 190.845L1.70077 186.939C1.64397 186.582 1.67473 186.216 1.7907 185.874C1.97608 185.325 2.43678 184.259 3.1657 183.434L2.90063 181.193C1.99896 180.562 1.30239 179.632 0.993939 179.142C0.801455 178.836 0.686285 178.488 0.657885 178.127L0.347856 174.184C0.319457 173.824 0.379412 173.463 0.521408 173.13C0.749391 172.596 1.29135 171.57 2.08337 170.805L1.99502 168.55C1.14619 167.85 0.524565 166.869 0.255561 166.356C0.0875319 166.035 -3.05176e-05 165.679 -3.05176e-05 165.318V161.363C-3.05176e-05 161.002 0.0875319 160.645 0.255561 160.325C0.524565 159.811 1.14619 158.831 1.99502 158.13L2.08337 155.876C1.29845 155.117 0.754124 154.095 0.521408 153.551C0.378623 153.219 0.319457 152.857 0.347856 152.496L0.657885 148.553C0.686285 148.193 0.801455 147.845 0.993939 147.539C1.30239 147.048 1.99896 146.12 2.90063 145.488L3.1657 143.247C2.43678 142.421 1.97608 141.356 1.7907 140.807C1.67473 140.464 1.64397 140.099 1.70077 139.742L2.31924 135.836C2.37604 135.479 2.51803 135.141 2.73418 134.851C3.0805 134.385 3.84807 133.514 4.79629 132.955L5.23648 130.742C4.57462 129.863 4.19911 128.765 4.05712 128.202C3.96876 127.852 3.96639 127.485 4.0508 127.133L4.97378 123.287C5.05819 122.936 5.22622 122.61 5.46446 122.338C5.84627 121.901 6.67931 121.093 7.66855 120.61L8.28071 118.438C7.68906 117.509 7.40113 116.384 7.3041 115.813C7.24414 115.456 7.27018 115.09 7.3822 114.746L8.60415 110.985C8.71617 110.641 8.90944 110.33 9.16819 110.077C9.58235 109.672 10.4769 108.932 11.5009 108.528L12.2819 106.41C11.7652 105.439 11.5664 104.295 11.5143 103.717C11.4812 103.357 11.5372 102.995 11.6752 102.66L13.1883 99.0069C13.3263 98.6724 13.544 98.3774 13.8217 98.1454C14.2667 97.7747 15.2164 97.1065 16.2688 96.7839L17.2139 94.7344C16.7753 93.7246 16.6664 92.5689 16.6601 91.9891C16.6561 91.627 16.7397 91.2697 16.9038 90.9478L18.6993 87.4239C18.8634 87.1013 19.1032 86.8236 19.3982 86.6145C19.8708 86.2793 20.8703 85.6868 21.9447 85.4486L23.0475 83.4796C22.6894 82.4383 22.672 81.2771 22.7107 80.6988C22.7344 80.3383 22.8464 79.9889 23.0349 79.6804L25.101 76.3088C25.2903 76.0003 25.5506 75.7424 25.8614 75.557C26.3592 75.2596 27.4013 74.7484 28.4915 74.5946L29.745 72.7186C29.4697 71.6529 29.5431 70.494 29.6275 69.9205C29.6796 69.5624 29.8184 69.2232 30.0306 68.9305L32.3554 65.7308C32.5684 65.4382 32.8484 65.2015 33.1727 65.0414C33.6917 64.7842 34.7709 64.3566 35.8698 64.2888L37.2669 62.517C37.076 61.4323 37.2409 60.2829 37.3694 59.7181C37.4499 59.3655 37.614 59.0381 37.8491 58.7628L40.4176 55.7556C40.6527 55.4811 40.9501 55.2673 41.2862 55.1324C41.8242 54.917 42.9341 54.5747 44.0346 54.5936L44.22 54.3924L45.5658 52.9362C45.4609 51.8405 45.7149 50.7076 45.8876 50.1538C45.9957 49.8083 46.1858 49.4944 46.4414 49.2388L49.238 46.4422C49.4944 46.1866 49.8075 45.9973 50.1531 45.8892C50.7069 45.7165 51.8397 45.4624 52.9354 45.5674L54.5928 44.0354C54.5739 42.9349 54.9162 41.825 55.1316 41.287C55.2657 40.9517 55.4795 40.6535 55.7548 40.4184L58.762 37.8499C59.0365 37.6156 59.3647 37.4507 59.7173 37.3702C60.2829 37.2417 61.4323 37.0768 62.5162 37.2677L64.288 35.8706C64.3551 34.7717 64.7834 33.6925 65.0406 33.1727C65.2007 32.8484 65.4374 32.5684 65.73 32.3554L68.9297 30.0306C69.2224 29.8184 69.5616 29.6796 69.9197 29.6275C70.4932 29.5431 71.6521 29.4697 72.7178 29.745L74.5938 28.4915C74.7476 27.4013 75.2588 26.3592 75.5562 25.8614C75.7416 25.5506 75.9995 25.2903 76.308 25.101L79.6796 23.0349C79.9881 22.8464 80.3375 22.7352 80.698 22.7107C81.2763 22.672 82.4367 22.6894 83.478 23.0475L85.447 21.9447C85.6861 20.8703 86.2777 19.8716 86.613 19.3982C86.822 19.1032 87.0997 18.8634 87.4216 18.6993L90.9454 16.9038C91.2681 16.7398 91.6255 16.6561 91.9867 16.6601C92.5666 16.6664 93.7223 16.7753 94.732 17.2139L96.7815 16.2688C97.1033 15.2164 97.7715 14.2667 98.1431 13.8217C98.375 13.544 98.67 13.3263 99.0045 13.1883L102.658 11.6752C102.995 11.5356 103.362 11.4804 103.726 11.5151L103.764 11.519C104.342 11.5766 105.456 11.7762 106.409 12.2819L108.526 11.5009C108.93 10.4769 109.67 9.58236 110.076 9.1682C110.329 8.90946 110.64 8.71617 110.984 8.60415L114.746 7.3822C115.09 7.27018 115.456 7.24336 115.812 7.3041C116.383 7.40113 117.508 7.68987 118.437 8.28073L120.608 7.66856C121.091 6.67932 121.9 5.84627 122.336 5.46446C122.608 5.22622 122.934 5.0582 123.286 4.97379L127.132 4.05082C127.483 3.96641 127.85 3.96877 128.201 4.05712C128.762 4.19912 129.861 4.57462 130.741 5.23648L132.954 4.79629C133.514 3.84728 134.384 3.0805 134.85 2.73419C135.14 2.51804 135.478 2.37604 135.835 2.31924L139.741 1.70077C140.097 1.64398 140.463 1.67474 140.806 1.7907C141.355 1.97609 142.421 2.43678 143.246 3.1657L145.487 2.90064C146.118 1.99896 147.047 1.3024 147.538 0.993951C147.844 0.801467 148.192 0.686285 148.553 0.657885L152.495 0.347868C152.856 0.319469 153.218 0.379412 153.55 0.521408C154.083 0.749391 155.11 1.29135 155.875 2.08338L158.129 1.99502C158.83 1.1462 159.81 0.524571 160.324 0.255567C160.644 0.0875379 161.001 -3.05176e-05 161.362 -3.05176e-05H165.317C165.678 -3.05176e-05 166.035 0.0875379 166.355 0.255567C166.868 0.524571 167.849 1.14541 168.55 1.99502L170.804 2.08338C171.569 1.29214 172.596 0.749391 173.129 0.521408C173.461 0.378623 173.823 0.319469 174.184 0.347868L178.126 0.657885L178.175 0.661834C178.519 0.696544 178.849 0.810145 179.142 0.993951C179.632 1.3024 180.561 1.99896 181.193 2.90064L183.434 3.1657C184.259 2.43678 185.325 1.97609 185.874 1.7907C186.217 1.67474 186.582 1.64398 186.94 1.70077L190.845 2.31924C191.203 2.37604 191.54 2.51804 191.831 2.73419C192.296 3.0805 193.167 3.84807 193.726 4.79629L195.939 5.23648C196.819 4.57462 197.917 4.19912 198.479 4.05712C198.829 3.96877 199.196 3.96641 199.548 4.05082L203.393 4.97379C203.745 5.0582 204.071 5.22622 204.343 5.46446C204.779 5.84627 205.588 6.67932 206.07 7.66856L208.242 8.28073C209.171 7.68908 210.296 7.40113 210.867 7.3041C211.223 7.24415 211.589 7.27018 211.933 7.3822L215.695 8.60415C216.039 8.71617 216.35 8.90946 216.603 9.1682C217.007 9.58236 217.748 10.4769 218.152 11.5009L220.269 12.2819C221.241 11.7652 222.385 11.5664 222.963 11.5143C223.323 11.482 223.686 11.5372 224.02 11.6752L227.673 13.1883C228.007 13.3263 228.302 13.544 228.534 13.8217C228.905 14.2667 229.573 15.2164 229.896 16.2688L231.945 17.2139C232.955 16.7753 234.111 16.6672 234.691 16.6601C235.053 16.6561 235.41 16.7398 235.732 16.9038L239.256 18.6993C239.578 18.8634 239.856 19.1032 240.065 19.3982C240.4 19.8708 240.992 20.8703 241.231 21.9447L243.2 23.0475C244.242 22.6894 245.403 22.672 245.981 22.7107C246.341 22.7344 246.691 22.8456 246.999 23.0349L250.371 25.101C250.679 25.2903 250.937 25.5506 251.123 25.8614C251.42 26.3592 251.931 27.4013 252.085 28.4915L253.961 29.745C255.027 29.4697 256.186 29.5431 256.759 29.6275C257.117 29.6796 257.457 29.8184 257.749 30.0306L260.949 32.3554C261.242 32.5684 261.478 32.8484 261.638 33.1727C261.896 33.6925 262.323 34.7717 262.391 35.8706L264.163 37.2677C265.247 37.0768 266.397 37.2417 266.962 37.3702C267.314 37.4499 267.642 37.6148 267.917 37.8499L270.924 40.4184C271.199 40.6535 271.412 40.9509 271.547 41.287C271.763 41.825 272.105 42.9349 272.086 44.0354L273.743 45.5674C274.839 45.4624 275.971 45.7165 276.525 45.8892C276.871 45.9965 277.185 46.1866 277.44 46.4422L280.237 49.2388C280.492 49.4952 280.682 49.8083 280.79 50.1538C280.963 50.7076 281.217 51.8405 281.112 52.9362L282.644 54.5928C283.744 54.5739 284.854 54.9163 285.392 55.1316C285.727 55.2657 286.025 55.4795 286.261 55.7548L288.829 58.762C289.063 59.0365 289.228 59.3647 289.309 59.7173C289.438 60.2829 289.602 61.4323 289.411 62.5162L290.808 64.288C291.907 64.3551 292.986 64.7834 293.506 65.0406C293.831 65.2007 294.111 65.4374 294.324 65.73L296.648 68.9297C296.861 69.2224 296.999 69.5616 297.051 69.9197C297.136 70.4932 297.209 71.6521 296.934 72.7178L298.187 74.5938C299.278 74.7476 300.32 75.2588 300.818 75.5562C301.128 75.7416 301.389 75.9995 301.578 76.308L303.644 79.6796C303.833 79.9881 303.944 80.3375 303.968 80.698C304.007 81.2771 303.99 82.4375 303.631 83.4788L304.734 85.4478C305.809 85.6869 306.808 86.2785 307.281 86.6138C307.576 86.8236 307.816 87.1013 307.98 87.4232L309.775 90.947C309.939 91.2697 310.023 91.627 310.019 91.9883C310.013 92.5681 309.904 93.7238 309.465 94.7336L310.41 96.7831C311.463 97.1049 312.412 97.7731 312.857 98.1447C313.135 98.3766 313.353 98.6716 313.491 99.0061L315.004 102.659C315.142 102.994 315.197 103.356 315.165 103.716C315.113 104.294 314.914 105.437 314.397 106.41L315.178 108.527C316.202 108.931 317.096 109.671 317.511 110.076C317.77 110.329 317.963 110.64 318.075 110.984L319.297 114.746C319.409 115.09 319.436 115.456 319.375 115.812C319.278 116.384 318.989 117.509 318.398 118.438L319.01 120.609C320 121.092 320.833 121.901 321.215 122.337C321.453 122.609 321.621 122.935 321.705 123.287L322.628 127.132C322.713 127.484 322.71 127.851 322.622 128.201C322.48 128.763 322.104 129.862 321.443 130.741L321.883 132.954C322.832 133.514 323.599 134.385 323.945 134.85C324.161 135.14 324.303 135.478 324.36 135.835L324.978 139.741C325.035 140.097 325.004 140.463 324.888 140.806C324.703 141.355 324.242 142.421 323.513 143.246L323.778 145.487C324.68 146.118 325.377 147.047 325.685 147.538C325.878 147.844 325.993 148.192 326.021 148.553L326.331 152.495C326.359 152.856 326.3 153.217 326.158 153.55C325.93 154.083 325.388 155.11 324.596 155.875L324.684 158.129C325.534 158.83 326.155 159.81 326.424 160.324C326.592 160.644 326.68 161.001 326.68 161.362V165.317C326.68 165.678 326.592 166.035 326.424 166.355C326.154 166.868 325.534 167.849 324.684 168.55L324.596 170.804C325.381 171.563 325.925 172.585 326.158 173.129C326.3 173.461 326.359 173.823 326.331 174.184L326.021 178.126C325.993 178.487 325.878 178.835 325.685 179.141C325.377 179.632 324.68 180.56 323.778 181.192L323.513 183.433C324.242 184.258 324.703 185.324 324.888 185.873C325.004 186.215 325.035 186.581 324.978 186.938L324.36 190.844C324.303 191.201 324.161 191.539 323.945 191.829C323.599 192.295 322.831 193.165 321.883 193.725L321.443 195.938C322.104 196.818 322.48 197.917 322.622 198.478C322.71 198.829 322.713 199.196 322.628 199.547L321.705 203.393C321.621 203.745 321.453 204.071 321.215 204.343C320.833 204.779 320 205.588 319.01 206.07L318.398 208.242C318.99 209.171 319.278 210.296 319.375 210.867C319.436 211.223 319.409 211.589 319.297 211.933L318.075 215.695C317.963 216.039 317.77 216.35 317.511 216.603C317.097 217.007 316.202 217.748 315.178 218.152L314.397 220.269C314.914 221.241 315.113 222.385 315.165 222.963C315.197 223.323 315.142 223.685 315.004 224.02L313.491 227.673C313.353 228.007 313.135 228.302 312.857 228.534C312.412 228.905 311.463 229.574 310.41 229.896L309.465 231.945C309.904 232.955 310.013 234.111 310.019 234.691C310.023 235.053 309.939 235.409 309.775 235.732L307.98 239.256C307.816 239.578 307.576 239.855 307.281 240.064C306.808 240.4 305.809 240.991 304.734 241.23L303.631 243.199C303.99 244.241 304.007 245.402 303.968 245.98C303.945 246.341 303.833 246.69 303.644 246.999L301.578 250.37C301.389 250.679 301.128 250.937 300.818 251.122C300.32 251.419 299.278 251.931 298.187 252.084L296.934 253.961C297.209 255.027 297.136 256.186 297.051 256.759C296.999 257.117 296.861 257.457 296.648 257.749L294.324 260.949C294.111 261.242 293.831 261.478 293.506 261.638C292.986 261.896 291.907 262.323 290.808 262.391L289.411 264.163C289.602 265.247 289.437 266.397 289.309 266.962C289.229 267.314 289.064 267.642 288.829 267.917L286.261 270.924C286.025 271.199 285.728 271.413 285.392 271.547C284.854 271.763 283.744 272.105 282.644 272.086L281.112 273.743C281.217 274.839 280.963 275.972 280.79 276.525C280.682 276.871 280.492 277.185 280.237 277.44L277.44 280.237C277.185 280.492 276.871 280.682 276.525 280.79C275.971 280.963 274.839 281.217 273.743 281.112L272.086 282.644C272.105 283.744 271.763 284.854 271.547 285.392C271.413 285.727 271.199 286.025 270.924 286.261L267.917 288.829C267.642 289.063 267.314 289.228 266.962 289.309C266.396 289.437 265.247 289.602 264.163 289.411L263.948 289.581L262.391 290.808C262.324 291.906 261.896 292.986 261.638 293.506C261.478 293.83 261.242 294.11 260.949 294.323L257.749 296.648C257.457 296.86 257.117 296.998 256.759 297.051C256.186 297.134 255.027 297.208 253.961 296.933L252.085 298.187C251.931 299.277 251.42 300.319 251.123 300.817C250.937 301.128 250.679 301.388 250.371 301.577L246.999 303.643C246.691 303.832 246.341 303.943 245.981 303.967C245.402 304.006 244.242 303.989 243.2 303.631L241.231 304.733C240.992 305.808 240.4 306.807 240.065 307.28C239.855 307.575 239.578 307.815 239.256 307.979L235.732 309.774C235.409 309.938 235.052 310.022 234.691 310.018C234.111 310.012 232.955 309.903 231.945 309.464L229.896 310.409C229.574 311.462 228.906 312.411 228.534 312.856C228.302 313.134 228.007 313.351 227.673 313.49L224.02 315.003C223.682 315.143 223.315 315.198 222.952 315.163L222.914 315.159C222.336 315.101 221.222 314.903 220.269 314.396L218.152 315.177C217.748 316.201 217.007 317.095 216.603 317.51C216.35 317.769 216.039 317.962 215.695 318.074L211.933 319.296C211.589 319.408 211.223 319.435 210.867 319.374C210.296 319.276 209.171 318.988 208.242 318.397L206.07 319.01C205.588 319.999 204.779 320.832 204.343 321.214C204.071 321.451 203.745 321.62 203.393 321.704L199.548 322.627C199.197 322.712 198.829 322.709 198.479 322.621C197.918 322.479 196.819 322.104 195.939 321.442L193.726 321.882C193.167 322.831 192.295 323.598 191.831 323.944C191.54 324.16 191.203 324.302 190.845 324.359L186.94 324.977C186.582 325.034 186.216 325.003 185.874 324.887C185.325 324.702 184.258 324.241 183.434 323.513L181.193 323.778C180.562 324.679 179.632 325.376 179.142 325.684C178.836 325.877 178.488 325.992 178.127 326.02L174.184 326.33C173.824 326.359 173.463 326.299 173.13 326.157C172.596 325.929 171.57 325.387 170.805 324.595L168.55 324.683C167.85 325.532 166.869 326.154 166.356 326.423C166.035 326.591 165.679 326.678 165.318 326.678H161.363C161.002 326.678 160.645 326.591 160.325 326.423C159.811 326.154 158.831 325.533 158.13 324.683L155.876 324.595C155.11 325.386 154.084 325.929 153.551 326.157C153.219 326.3 152.857 326.359 152.496 326.33L148.553 326.02L148.505 326.016ZM163 315C246.947 315 315 246.947 315 163C315 79.0525 246.947 10.9998 163 10.9998C79.0526 10.9998 10.9998 79.0525 10.9998 163C10.9998 246.947 79.0526 315 163 315Z" fill="#0099FF"/>
<path d="M130.554 262.868C137.125 249.292 143.698 235.717 150.355 222.056C151.15 221.327 152.744 220.674 154.98 220.214C157.263 219.745 160.024 219.515 162.814 219.526C165.603 219.537 168.383 219.788 170.705 220.264C172.956 220.726 174.615 221.367 175.49 222.081C182.048 235.713 188.606 249.263 195.246 262.812C172.877 269.287 151.248 270.08 130.554 262.868ZM175.488 103.813C174.615 104.545 172.955 105.203 170.701 105.675C168.381 106.161 165.601 106.418 162.814 106.429C160.025 106.44 157.266 106.205 154.984 105.725C152.746 105.254 151.151 104.585 150.356 103.837C143.7 90.2617 137.126 76.687 130.554 63.1098C151.248 55.8971 172.877 56.6907 195.246 63.1664C188.605 76.7159 182.046 90.265 175.488 103.813ZM223.936 227.288C218.571 219.319 213.212 211.359 207.821 203.437C207.585 202.373 207.814 200.657 208.528 198.488C209.257 196.27 210.43 193.76 211.828 191.348C213.225 188.935 214.827 186.653 216.396 184.881C217.919 183.163 219.305 182.05 220.363 181.654C234.832 182.734 249.378 183.737 263.853 184.735L265.496 184.849C259.955 207.464 249.775 226.597 233.153 240.961C230.074 236.404 227.004 231.844 223.936 227.288ZM99.7091 95.5298C105.801 104.526 111.879 113.502 117.914 122.522C118.118 123.624 117.863 125.378 117.143 127.565C116.405 129.811 115.235 132.345 113.849 134.768C112.462 137.191 110.878 139.472 109.325 141.22C107.806 142.93 106.439 143.992 105.406 144.325C90.3604 143.201 75.3148 142.163 60.1883 141.125C64.3497 119.464 75.8811 101.127 92.6286 85.0672C94.9897 88.5604 97.3504 92.0466 99.7091 95.5298ZM221.048 102.948C225.066 96.9918 229.085 91.0358 233.118 85.0673C249.864 101.127 261.396 119.465 265.557 141.125C264.821 141.176 264.085 141.227 263.348 141.278C249.032 142.265 234.648 143.257 220.339 144.325C219.308 143.992 217.946 142.931 216.435 141.222C214.889 139.473 213.312 137.193 211.931 134.769C210.55 132.346 209.383 129.811 208.639 127.564C207.918 125.382 207.649 123.626 207.836 122.518C212.252 115.984 216.65 109.466 221.048 102.948ZM92.5947 240.961C75.9768 226.599 65.8773 207.468 60.2549 184.849C75.3504 183.813 90.3675 182.775 105.384 181.654C106.443 182.05 107.835 183.164 109.364 184.883C110.94 186.654 112.55 188.937 113.953 191.349C115.355 193.762 116.531 196.27 117.256 198.486C117.967 200.661 118.183 202.375 117.93 203.433C109.81 215.487 101.61 227.62 93.4081 239.758L92.5947 240.961Z" stroke="#0099FF" stroke-width="2"/>
<path d="M187.447 163.722C187.447 176.866 176.775 187.534 163.723 187.534C150.671 187.534 140 176.868 140 163.722C140 150.669 150.67 140 163.723 140C176.777 140 187.447 150.669 187.447 163.722Z" stroke="#0099FF" stroke-width="2"/>
<path d="M122.39 187.432L122.39 187.432L122.385 187.424C120.572 184.374 121.644 180.417 124.692 178.686L124.692 178.686L124.7 178.681C127.748 176.868 131.706 177.94 133.438 180.989L133.44 180.993C135.255 184.13 134.187 188.005 131.13 189.825C128.079 191.554 124.119 190.478 122.39 187.432ZM193.182 146.529L193.178 146.522L193.174 146.515C191.365 143.474 192.425 139.599 195.485 137.777C198.533 136.051 202.497 137.119 204.318 140.175C206.043 143.219 204.979 147.096 201.92 148.917C198.859 150.65 194.906 149.651 193.182 146.529ZM122.385 140.178L122.385 140.178L122.39 140.169C124.119 137.123 128.079 136.047 131.131 137.775C134.191 139.599 135.251 143.473 133.444 146.514L133.44 146.521L133.436 146.527C131.711 149.65 127.758 150.65 124.697 148.915C121.636 147.094 120.577 143.22 122.385 140.178ZM193.177 180.993L193.179 180.989C194.908 177.941 198.866 176.869 201.916 178.681L201.916 178.681L201.924 178.686C204.971 180.415 206.047 184.374 204.318 187.428C202.497 190.484 198.533 191.551 195.485 189.825C192.429 188.005 191.361 184.13 193.177 180.993ZM163.308 116.5C166.857 116.5 169.745 119.388 169.745 122.937C169.745 126.476 166.865 129.284 163.308 129.284C159.752 129.284 156.871 126.476 156.871 122.937C156.871 119.388 159.76 116.5 163.308 116.5ZM163.308 198.228C166.857 198.228 169.745 201.117 169.745 204.665C169.745 208.212 166.857 211.101 163.308 211.101C159.76 211.101 156.871 208.212 156.871 204.665C156.871 201.117 159.76 198.228 163.308 198.228Z" stroke="#0099FF"/>
<path d="M153.5 163.405V163.404C153.5 157.989 157.989 153.5 163.404 153.5C168.906 153.5 173.31 157.987 173.31 163.404C173.31 168.909 168.909 173.31 163.404 173.31C157.985 173.31 153.499 168.908 153.5 163.405Z" stroke="#0099FF"/>
</g>
<defs>
<clipPath id="clip0_101_2209899">
<rect width="327" height="327" fill="white"/>
</clipPath>
</defs>
</svg>
